<?xml version="1.0" standalone="no"?><!DOCTYPE svg PUBLIC "-//W3C//DTD SVG 1.1//EN" "http://www.w3.org/Graphics/SVG/1.1/DTD/svg11.dtd"><svg t="1544764558636" class="icon" style="" viewBox="0 0 1836 1024" version="1.1" xmlns="http://www.w3.org/2000/svg" p-id="1775" data-spm-anchor-id="a313x.7781069.0.i13" xmlns:xlink="http://www.w3.org/1999/xlink" width="358.59375" height="200"><defs><style type="text/css"></style></defs><path d="M503.014316 321.377146H31.937766C14.371895 321.377146 0 335.749041 0 353.314912s14.371895 31.937766 31.937766 31.937766h471.07655c17.564871 0 31.936766-14.371895 31.936766-31.937766s-14.371895-31.937766-31.936766-31.937766z" fill="#77a5f0" p-id="1776" data-spm-anchor-id="a313x.7781069.0.i7" class=""></path><path d="M503.014316 560.907392H191.624596c-17.565871 0-31.937766 14.371895-31.937766 31.937766s14.371895 31.937766 31.937766 31.937766h311.38972c17.564871 0 31.936766-14.371895 31.936766-31.937766s-14.371895-31.937766-31.936766-31.937766z" fill="#92b6ff" p-id="1777" data-spm-anchor-id="a313x.7781069.0.i11" class=""></path><path d="M503.014316 800.438637h-143.718948c-17.564871 0-31.936766 14.371895-31.936766 31.936767s14.371895 31.937766 31.936766 31.937766h143.718948c17.564871 0 31.936766-14.371895 31.936766-31.937766s-14.371895-31.936766-31.936766-31.936767z" fill="#D9E6FF" p-id="1778"></path><path d="M1836.39955 476.274012c-1.596988-11.177918-6.386953-27.146801-12.774907-27.146802l-1.596988-3.193976c-3.192977-4.789965-6.386953-9.58093-11.177918-12.774907l-124.556088-121.362111-41.517696 41.518696 67.068509 63.874532h-1.596988l54.293602 55.890591-242.724222 213.980433-135.734006-121.362111c-38.324719-28.743789-91.021333-30.339778-130.943041 1.596988l-124.556088 114.974158-241.128234-209.189468 27.147802-23.952825h1.596988L1304.642445 77.056936c6.386953-6.387953 14.371895-11.178918 22.355836-11.178919 7.984942 0 15.968883 1.596988 22.356836 7.984942l108.586205 102.199251 46.309661-41.518695-110.184193-106.989217c-36.727731-36.729731-99.005275-36.729731-135.734006 0l-416.782948 399.217076c-7.983942 9.57993-27.146801 31.936766-27.146801 54.292603v479.061491c0 35.130743 28.743789 63.874532 63.875532 63.874532h894.246451c35.130743 0 63.874532-28.743789 63.874532-63.874532V482.660965v-6.386953z m-958.120983 68.665497l205.995492 182.042666-205.995492 188.43062V544.939509z m46.309661 415.185959l225.158351-207.59348c1.595988-1.596988 4.789965-3.193977 6.386953-4.789965 0 0 0-1.596988 1.596989-1.596988l140.52397-129.347053c7.984942-6.386953 15.969883-9.58093 25.549813-9.580929 9.58193 0 17.565871 3.193977 23.953825 7.983941l383.248193 344.924474H924.587228z m847.93679-47.906649l-202.802515-182.042667 202.802515-178.84869v360.891357z" fill="#77a5f0" p-id="1779" data-spm-anchor-id="a313x.7781069.0.i6" class=""></path><path d="M1357.339059 289.44038c-79.843415 0-143.718947 63.874532-143.718948 143.717947 0 27.146801 7.984942 52.696614 20.759848 75.052451l20.759848-19.16186c6.386953-6.387953 14.370895-9.58093 22.355836-12.774906 0-3.193977-1.596988-6.387953-1.596988-9.58193 0-27.145801 20.759848-47.905649 47.905649-47.905649 27.146801 0 47.906649 20.759848 47.906649 47.905649 0 4.790965 0 7.984942-1.596988 11.178918 4.789965 3.192977 11.177918 6.386953 15.968883 9.58093l62.277544 55.88959c31.937766-27.145801 51.099626-65.47052 51.099626-110.183193 0-4.789965-1.596988-9.58093-1.596989-14.371894l97.409287-97.409287s-31.936766-31.936766 0-63.874532c30.340778-30.339778 59.084567 0 63.874532 0v-127.749064h-63.874532l-193.220585 167.670772c-14.371895-4.789965-28.743789-7.983942-44.712672-7.983942z" fill="#92b6ff" p-id="1780" data-spm-anchor-id="a313x.7781069.0.i10" class=""></path></svg>