<?xml version="1.0" encoding="utf-8"?>
<!-- Generated by IcoMoon.io -->
<!DOCTYPE svg PUBLIC "-//W3C//DTD SVG 1.1//EN" "http://www.w3.org/Graphics/SVG/1.1/DTD/svg11.dtd">
<svg version="1.1" xmlns="http://www.w3.org/2000/svg" xmlns:xlink="http://www.w3.org/1999/xlink" width="448" height="512" viewBox="0 0 448 512">
<g id="icomoon-ignore">
</g>
<path d="M128 256c0-32 0-96 0-96s-80 0-96 0-32 16-32 32 0 144 0 160 16 32 32 32 32 0 32 0v96l97-96s81 0 96 0 31-16 31-32 0-32 0-32-64 0-96 0-64-32-64-64zM416 64c-16 0-208 0-224 0s-32 16-32 32 0 144 0 160 16 32 32 32 95 0 95 0l97 96v-96s16 0 32 0 32-16 32-32 0-144 0-160-16-32-32-32z"></path>
</svg>
